:SAMPLES-PER-SECOND 30
:FULLY-SPECIFIED
:DEGREES
239
root  7.78673 38.5984 8.51727 174.562 -77.5322 -175.912
RightUpLeg  -10.5693 -6.9986 -16.2133
RightLeg  12.3715 4.64093 0.452693
RightFoot  4.95511 -2.78207 19.4924
RightToes  -5.28226e-011 1.30204e-014 -6.03759e-014
Spine  13.0862 -1.02695 -10.8756
Spine1  -6.63387 -3.4997 11.5387
HEad  -17.6932 -35.1809 10.982
LeftShoulder1  2.14735 -5.89373 -16.1254
LeftArm  33.1202 3.21329 -61.1479
LeftForeArm  23.6418 -16.6108 -7.27254
LeftHand  -0.454422 -1.06378 8.23275
RightShoulder  0.89167 0.865926 13.513
RightArm  40.8238 -0.825563 44.3568
RightForeArm  5.9516 44.5692 10.746
RightHand  -1.47189 3.23751 -19.9079
LeftUpLeg  -6.60026 0.232481 12.7499
LeftLeg  23.9409 -1.57313 -0.421031
LeftFoot  -14.6723 -0.460938 -18.6366
LeftToes  -2.42178e-010 -1.66495e-011 -2.88221e-011
240
root  7.95636 38.4727 9.06058 171.554 -76.2496 -172.554
RightUpLeg  -13.1999 -8.59923 -17.5131
RightLeg  18.6273 5.80604 2.00936
RightFoot  5.45747 -3.47273 23.5225
RightToes  -5.28226e-011 1.30204e-014 -6.03759e-014
Spine  13.2496 1.18355 -7.32485
Spine1  -7.45517 -0.691608 9.59301
HEad  -15.097 -4.04562 -1.3167
LeftShoulder1  2.50937 -6.48238 -18.6041
LeftArm  8.17551 12.2401 -52.3421
LeftForeArm  47.2935 -3.35803 -15.2732
LeftHand  -0.325755 0.706534 8.05242
RightShoulder  0.787158 0.508102 12.6526
RightArm  34.4391 4.4286 51.3392
RightForeArm  24.7181 66.2343 24.8743
RightHand  -1.38212 3.87214 -17.4217
LeftUpLeg  -7.72101 0.0189686 12.7736
LeftLeg  25.6236 0.45188 0.590536
LeftFoot  -15.9199 -0.587658 -16.9144
LeftToes  -2.42178e-010 -1.66495e-011 -2.88221e-011
241
root  8.04512 38.4765 9.44327 171.026 -75.8444 -172.765
RightUpLeg  -16.9702 -4.4744 -20.456
RightLeg  35.0998 3.86839 2.59229
RightFoot  3.76379 -3.38096 25.2882
RightToes  -5.28226e-011 1.30204e-014 -6.03759e-014
Spine  14.1913 2.91276 -2.26822
Spine1  -7.03508 1.88525 4.45475
HEad  -19.9949 27.6808 -11.3821
LeftShoulder1  2.42426 -6.43744 -17.7726
LeftArm  9.11411 21.9061 -43.5408
LeftForeArm  47.8914 0.278623 -15.7833
LeftHand  -0.326083 0.629313 7.94781
RightShoulder  0.667168 0.244646 10.6197
RightArm  31.0395 10.9431 59.4471
RightForeArm  78.458 79.5928 78.5088
RightHand  -1.07647 3.45782 -14.3074
LeftUpLeg  -7.80204 -0.751027 11.9178
LeftLeg  26.8043 1.33337 1.09077
LeftFoot  -15.9961 -0.556905 -15.9589
LeftToes  -2.42178e-010 -1.66495e-011 -2.88221e-011
242
root  8.07712 38.5271 9.61518 167.007 -78.178 -170.402
RightUpLeg  -18.397 0.827654 -23.5717
RightLeg  56.6832 1.37084 1.80599
RightFoot  0.964926 -2.51692 23.0227
RightToes  -5.28226e-011 1.30204e-014 -6.03759e-014
Spine  15.559 4.01201 2.09336
Spine1  -5.73493 3.59531 0.084024
HEad  -29.8811 54.2318 -22.8565
LeftShoulder1  2.09066 -6.24376 -14.5738
LeftArm  14.4342 29.102 -34.5043
LeftForeArm  44.108 0.898693 -16.3564
LeftHand  -0.380991 0.203731 8.57619
RightShoulder  0.531276 -0.16261 8.49097
RightArm  26.6249 17.2142 63.6692
RightForeArm  146.164 71.7651 147.488
RightHand  -0.845394 2.72917 -12.2779
LeftUpLeg  -7.16513 -2.77716 11.4872
LeftLeg  27.5749 0.828119 0.833238
LeftFoot  -15.9819 -0.517814 -15.0606
LeftToes  -2.42178e-010 -1.66495e-011 -2.88221e-011
243
root  8.05769 38.6394 9.63984 151.431 -82.5504 -155.96
RightUpLeg  -16.8475 4.24386 -25.4232
RightLeg  78.218 0.321972 0.391157
RightFoot  -1.6154 -1.63518 18.9857
RightToes  -5.28226e-011 1.30204e-014 -6.03759e-014
Spine  16.2011 4.57831 4.74665
Spine1  -5.15272 4.35688 -0.970683
HEad  -38.0532 67.8972 -32.3953
LeftShoulder1  1.76146 -6.15652 -11.0372
LeftArm  15.7793 33.282 -24.5452
LeftForeArm  42.5614 2.18403 -16.2989
LeftHand  -0.414314 0.16343 9.2606
RightShoulder  0.402485 -0.775181 7.21922
RightArm  19.8034 21.1931 61.4792
RightForeArm  158.228 58.8786 162.852
RightHand  -0.691845 1.80107 -11.3381
LeftUpLeg  -6.74799 -5.3572 12.0815
LeftLeg  26.6648 -0.546349 0.0691176
LeftFoot  -15.5284 -0.430104 -14.2194
LeftToes  -2.42178e-010 -1.66495e-011 -2.88221e-011
